<?xml version='1.0' encoding='utf-8'?>
<svg xmlns="http://www.w3.org/2000/svg" id="Layer_1" data-name="Layer 1" viewBox="0 0 24 24" width="512" height="512"><circle cx="16" cy="7" r="3" fill="#FFFFFF" /><path d="M4,19a1,1,0,0,0,1,1H20V18.586L11.121,9.707a3,3,0,0,0-4.242,0L4,12.586Z" fill="#FFFFFF" /><path d="M21,24H16V22h5a1,1,0,0,0,1-1V16h2v5A3,3,0,0,1,21,24Z" fill="#FFFFFF" /><path d="M2,8H0V3A3,3,0,0,1,3,0H8V2H3A1,1,0,0,0,2,3Z" fill="#FFFFFF" /><path d="M8,24H3a3,3,0,0,1-3-3V16H2v5a1,1,0,0,0,1,1H8Z" fill="#FFFFFF" /><path d="M24,8H22V3a1,1,0,0,0-1-1H16V0h5a3,3,0,0,1,3,3Z" fill="#FFFFFF" /></svg>